<svg id="Layer_1" data-name="Layer 1" xmlns="http://www.w3.org/2000/svg" width="30.4726mm" height="13.3154mm" viewBox="0 0 86.3792 37.7445"><defs><style>.cls-1{fill:#181818;}.cls-2{fill:#f1662c;}.cls-3{fill:#888d89;}.cls-4{fill:#444445;}.cls-5{fill:#fff;}</style></defs><title>JFLogo</title><path class="cls-1" d="M24.9808,16.096l-9.2771,6.7484c1.0241.1275,2.0455.2989,3.0627.5081l8.6981-6.2946Z" transform="translate(-0.0555 -0.0276)"/><path class="cls-1" d="M22.6959,15.2111l-3.9818-1.5422L4.5583,23.9391c.26-.0835.52-.1668.7812-.2455.9826-.2957,2.1546-.531,2.5136-.6152a13.89,13.89,0,0,1,2.7186-.4436c.2764-.0161.9536-.0437,1.23-.0429.2163,0,.4326.0031.6488.0079l.1811.0016" transform="translate(-0.0555 -0.0276)"/><polygon class="cls-1" points="36.514 0.687 24.507 9.399 32.073 8.266 31.847 8.432 31.848 8.432 36.514 5.008 39.564 7.146 44.607 6.391 44.61 6.391 44.615 6.387 36.514 0.687"/><polygon class="cls-1" points="22.731 9.291 30.782 3.453 16.74 3.453 21.386 9.291 22.731 9.291"/><polygon class="cls-1" points="15.615 5.714 18.467 9.291 20.212 9.291 15.634 3.463 10.96 9.329 12.734 9.329 15.615 5.714"/><polygon class="cls-1" points="15.524 12.427 14.839 12.162 14.297 12.162 14.297 13.395 15.524 13.396 15.524 12.427"/><polyline class="cls-1" points="15.714 13.395 16.941 13.396 16.941 12.976 15.716 12.502"/><polygon class="cls-1" points="15.709 10.68 15.709 10.716 15.944 10.68 15.954 10.679 15.709 10.68"/><polygon class="cls-1" points="15.517 10.674 14.294 10.675 14.294 10.928 15.509 10.749 15.511 10.748 15.516 10.745 15.517 10.674"/><path class="cls-1" d="M81.2693.8H64.5226a2.819,2.819,0,0,0-.521.0472,6.6268,6.6268,0,0,0-4.7722,3.3915L81.9085.9242,86.4347.0276Z" transform="translate(-0.0555 -0.0276)"/><path class="cls-1" d="M54.2435,1.7848a5.3781,5.3781,0,0,0-2.275-.973l-2.06,4.8218,5.8176-.8705.01-.002A4.1743,4.1743,0,0,0,54.2435,1.7848Z" transform="translate(-0.0555 -0.0276)"/><path class="cls-1" d="M30.7785,18.3414,27.7873,25.58l15.8823.0287a4.9516,4.9516,0,0,0,2.7422-.8731c.0744-.0476,4.6719,1.5289,4.91,1.567L46.8747,24.41l0-.0045Z" transform="translate(-0.0555 -0.0276)"/><path class="cls-1" d="M3.7754,18.5824l-.0015.006c.03.0135.0878.0313.0878.0313-.0017.0032.1292-.3287.2992-.38a1.2368,1.2368,0,0,1,.2312-.0238c.08-.0079.1594-.0179.239-.0272a1.8713,1.8713,0,0,1,.622,0c.1315.0294.3143.1123.3879-.0642a.4742.4742,0,0,0,.0072-.2981,1.4336,1.4336,0,0,1,.031-.8957c.0559-.1668.138-.3254.1856-.4942a.359.359,0,0,1,.3761-.2747c.3231-.0024.6448.046.9676.04.0884-.0016.2616-.022.21-.152-.0719-.1829-.2854-.2647-.4344-.37-.2288-.1614-.4574-.323-.688-.4819a.3063.3063,0,0,1-.1246-.3249c.08-.3274.1632-.655.2368-.9835a.3738.3738,0,0,1,.0974-.1975.3861.3861,0,0,1,.2543-.08c.1241-.0037.3055.0432.4081-.0513.06-.0548.0388-.3458.0382-.3458.0438-.0044.0877-.0064.1317-.0077a.5622.5622,0,0,0,.12-.0076c.0187-.0047.0278-.01.0265-.03-.001-.0149-.0145-.0607.0108-.063.1152-.0105.54-.0322.6581-.0358a4.0362,4.0362,0,0,0-.0366.4608,1.9794,1.9794,0,0,0,.1153.45,2.0185,2.0185,0,0,0,1.51,1.1161.1435.1435,0,0,0,.1645-.0394c.0541-.11-.2811-.2913-.3505-.338a4.1781,4.1781,0,0,1-.39-.3074.9877.9877,0,0,1-.3953-1.1682,2.3391,2.3391,0,0,0,.0948-.6367c.0021-.0522.0041-.1765.0089-.2307.5375-.0222,1.1074-.0212,1.6348-.0429.0151.1123-.0084.2222.0089.3505.3717-.1236.7342-.2554,1.0856-.3613.1728-.052.335-.0373.2826-.3577.2395-.0118.5446-.0206.7673-.02.1178,0,.1389-.06.1259-.23-.01-.1249-.0054-.1794-.1159-.1993a3.6584,3.6584,0,0,1-.4231-.0431c-.0415-.0148-.0506-.0924-.0537-.1288-.0029-.0344.0788-.0933.1177-.11a1.1174,1.1174,0,0,1,.3008-.0918c.1592-.02.13-.194.1315-.3239.0009-.1089-.1351-.09-.2137-.0884-.2283.0036-.4535.0438-.6976.0546.0018-.2755.0118-.2745-.152-.3059-.3568-.0683-.7969-.1794-1.1523-.2549a.6842.6842,0,0,0-.1372-.0348c0,.1192.0026.2506.0026.3772-.1967,0-.3726-.0025-.548.002-.204.0053-.1987.0465-.2774-.1757-.0722-.2038-.1569-.4029-.2437-.6009-.0321-.0733-.0636-.1469-.0964-.22C9.19,9.5043,9.1532,9.4373,9.13,9.366a1.106,1.106,0,0,0-.0407-.1036c-.0072-.016-.011-.0362-.0276-.0438-.0242-.0111-.0445.0027-.0681.0085-.0537.0134-.0795-.03-.101-.0732a1.8517,1.8517,0,0,1-.1007-.2823c-.0554-.1826.05-.273.3235-.4549a2.3419,2.3419,0,0,0,.4838-.5052c.0649-.086.0939-.1232.0715-.1979-.2122-.71-.45-1.4121-.6816-2.1161q-.081-.247-.1608-.4944-.0381-.1187-.0756-.2376c-.02-.0636-.0705-.1585-.05-.2251.0325-.1029.2549-.1141.2091-.2494a.9414.9414,0,0,0-.2227-.339.2721.2721,0,0,0-.3243-.0778c-.63.2506-1.2686.4819-1.8947.7425-.2758.1148-.5456.2436-.8142.3743-.1327.0646-.2652.13-.3981.1942-.1.0485-.2039.09-.3.1464a.2461.2461,0,0,0-.1126.2525,1.6511,1.6511,0,0,0,.0361.3349c.0322.1241.1885.0381.2687.0621.0929.0279.1129.1434.1528.2186q.6621,1.2465,1.3243,2.4929c.0206.0389.0824.1309.1065.1741.0256.0344.0991.0452.2034.04.3563,0,.7108.0221,1.039.03.0459.0011.1061.0722.1279.1131.0343.0644.0649.1306.0935.1977.0144.0335.0282.0672.0419.101a.31.31,0,0,1,.023.0545c.006.0307-.0185.0331-.0429.04-.0338.01-.06.0153-.0522.0574a.6574.6574,0,0,0,.0511.137c.0333.0771.0711.1523.1029.23.0766.1872.1681.3878.2457.5745.0048.02-.0222.053-.0491.0574a.3845.3845,0,0,1-.2451-.08,2.8417,2.8417,0,0,1-.4031-.2994c-.1436-.1395-.0808-.3892.2166-.4412a.5262.5262,0,0,0-.6354-.57c-.122.038-.1566.0928-.2343.0417a1.3859,1.3859,0,0,0-1.02-.1386.4081.4081,0,0,0-.1341.0371c-.0342.0164-.0453.049-.0612.0811q-.06.1206-.12.2415c-.08.1617-.1578.3242-.23.4892-.03.0685-.0112.1968.0733.2231.0888.0278.1918-.0622.2365-.1283a2.6648,2.6648,0,0,0,.12-.2409.4394.4394,0,0,1,.315-.2582.5949.5949,0,0,1,.3816.0639.4907.4907,0,0,1,.217.5531.4756.4756,0,0,1-.3894.4061c-.43.0331-.8628.0451-1.2943.059-.3869.0125-.333.0079-.394.2677-.019.0809-.0552.2269-.0593.2269-.0337,0-.0524.0038-.1011.0062-.0972.0048-.2093.0161-.36.0107-.0232-.0008-.0535,0-.07-.02s-.0047-.0447-.0172-.0641c-.0244-.0378-.0989-.0278-.1361-.0254-.0635.0041-.1272.0059-.1908.0084a1.1952,1.1952,0,0,1-.1814.0042.0467.0467,0,0,1-.036-.0213.24.24,0,0,1-.0092-.0267c-.0148-.0368-.07-.0365-.1037-.0324a.1175.1175,0,0,0-.0838.0715.6959.6959,0,0,0-.0615.4541c.0145.0922.0365.2688.1352.3136A.0809.0809,0,0,0,3.68,11.82c.03-.0014.0746-.0023.0827-.0378.005-.0221-.005-.0412.0194-.0557a.244.244,0,0,1,.13-.022c.1134.001.2221-.0122.3366-.0135a.4368.4368,0,0,0,.0512-.0026c.053-.0076.0359-.0517.0566-.0862a.0583.0583,0,0,1,.0359-.0247.8923.8923,0,0,1,.2144-.0081,1.2171,1.2171,0,0,0,.1323,0c-.0371.14-.0556.2388-.0984.3883a.3331.3331,0,0,1-.1145.1786.5381.5381,0,0,1-.3213.0817c-.1585.0093-.3659.0061-.5246.0119a.2281.2281,0,0,0-.2528.2671,1.2062,1.2062,0,0,1-.0143.2814c-.0388.1482-.1256.1624-.25.1693-.0351.002-.3362-.031-.2719.0787a.2017.2017,0,0,0,.0573.062c.38.213.8516.3838,1.2353.5891.3028.162.3362.2253.186.7011-.36,1.1411-.7364,2.391-1.0827,3.5365-.0583.1929.0213.1563.248.217-.0187.0444-.0434.0856-.0658.1283a1.38,1.38,0,0,0-.0749.16l.13.0564.0018-.0151Zm4.4307-6.1695c.0329.0042.0321.0384.0317.064-.0011.0638.0052.127.0074.1907.001.0283.0073.1061-.0365.1089-.06.0038-.2173.0108-.3083.0108-.0656,0-.2993.0255-.365.0242-.0927-.0018-.0275-.0754-.0877-.0781a.4852.4852,0,0,1-.2071-.0168c-.0376-.0185-.0426-.0986-.04-.1352.0033-.0534.03-.1128.0752-.12a2.2116,2.2116,0,0,1,.2991-.0325c0-.0047.206-.0021.206-.0068A4.0148,4.0148,0,0,1,8.2061,12.4129Zm-1.2315-.9045c.0142-.0015.0285-.0039.0428-.0048.0743-.005.1485-.01.2229-.0145l.0936-.0054c.1244-.0068.2489-.0107.3734-.0093q.0884.001.1764.0053c.0115.0006.0218.0388.0252.047a.2735.2735,0,0,1,.01.0356.1335.1335,0,0,1,.01.0514.4062.4062,0,0,1-.0824-.0024c-.0732-.0027-.1473.0014-.2205.0037-.1208.0037-.2417.012-.3626.012a1.5342,1.5342,0,0,1-.2544-.015.0919.0919,0,0,1-.0593-.0364.1223.1223,0,0,1-.0286-.063A.5281.5281,0,0,1,6.9746,11.5084Z" transform="translate(-0.0555 -0.0276)"/><polygon class="cls-2" points="31.053 11.611 34.781 11.7 34.788 11.7 36.689 10.326 36.689 10.326 38.773 11.796 38.788 11.796 38.801 11.796 42.784 11.892 36.652 7.581 36.622 7.56 36.622 7.56 36.577 7.593 31.053 11.611 31.053 11.611"/><polygon class="cls-2" points="45.408 11.243 46.835 7.96 44.615 6.387 39.561 7.145 39.564 7.146 45.405 11.251 45.408 11.243"/><polygon class="cls-2" points="27.628 11.529 32.073 8.266 24.507 9.399 24.506 9.399 21.764 11.388 21.764 11.388 27.628 11.529"/><polygon class="cls-2" points="16.935 11.272 16.935 10.679 15.952 10.679 15.716 10.714 15.709 10.715 15.709 11.243 15.716 11.243 16.935 11.272"/><polygon class="cls-2" points="15.517 11.25 15.516 10.745 14.296 10.928 14.294 10.928 14.294 11.222 14.297 11.218 15.517 11.25"/><path class="cls-2" d="M59.2294,4.2389l-.0053.0007c-.018.038-.0368.0751-.054.1139-.5145,1.1548-1.7944,4.2877-3.2273,7.84l-.0095.0391,15.9706.3826.8973-2.2811-10.0159.0572,1.2639-3.1908a1.246,1.246,0,0,1,.2862-.42.7247.7247,0,0,1,.1077-.0987c.1493-.1056.4917-.225,1.5234-.1827l13.65-.0143.002-.0047L81.9013.929l.0072-.0048Z" transform="translate(-0.0555 -0.0276)"/><path class="cls-2" d="M53.1939,12.1673c1.2134-2.8746,2.1415-5.0523,2.1415-5.0523a5.2851,5.2851,0,0,0,.39-2.3519l-5.8176.8705-.0071.0011-2.73,6.3883h.0066Z" transform="translate(-0.0555 -0.0276)"/><path class="cls-2" d="M70.855,19.7661c-2.37,6.818-8.4674,10.977-15.46,11.944-7.1118.9835-15.0372-.8568-21.6581-3.4378a94.2852,94.2852,0,0,0-14.97-4.92c-1.0172-.2092-2.0386-.3806-3.0627-.5081A32.1694,32.1694,0,0,0,12.451,22.6c-.2162-.0048-.4325-.0079-.6488-.0079-.2769-.0008-.9541.0268-1.23.0429a13.89,13.89,0,0,0-2.7186.4436c-.359.0842-1.531.32-2.5136.6152-.2613.0787-.5213.162-.7812.2455-.2428.0779-.4856.1561-.73.23a7.6049,7.6049,0,0,1-1.8332.4262,1.8783,1.8783,0,0,1-1.4526-.6973,1.03,1.03,0,0,1-.2523-.4748c-.1581-.8786.5734-1.4078,1.3206-1.6449a5.2357,5.2357,0,0,1,1.3186-.21,11.0233,11.0233,0,0,0,1.4022-.027c.0733-.0127.1462-.0282.218-.0479a2.1117,2.1117,0,0,0,1.079-.72l.0331.01c.9981.2912,2.4337.3773,3.0178-.6847a1.1705,1.1705,0,0,0,.1215-.3266.7622.7622,0,0,0-.69-.9564,2.2715,2.2715,0,0,0-.5335-.0357l-.0169.0008a2.6054,2.6054,0,0,0-.4808.0657,1.8641,1.8641,0,0,0-1.1094.9789c-.1358.2263-.2669.4523-.42.6594-.12-.042-.2374-.0893-.353-.1409a3.2217,3.2217,0,0,1-1.132-.791,1.033,1.033,0,0,1-.2923-.9655l.0015-.006-.25-.12-.0018.0151a1.6133,1.6133,0,0,0,.28,1.1606,3.0144,3.0144,0,0,0,1.5773,1.0576,1.9664,1.9664,0,0,1-.4417.3743,1.8344,1.8344,0,0,1-.5193.2161,7.41,7.41,0,0,1-1.7.0355,3.1674,3.1674,0,0,0-2.1186.7729,1.5124,1.5124,0,0,0-.3079,1.9522,1.8669,1.8669,0,0,0,1.24.8585,2.2532,2.2532,0,0,0,.9534-.0263c.3735-.0754.7472-.1512,1.1167-.2447s.728-.2095,1.1-.2881q.1822-.0386.3658-.07c.3619-.063.7269-.1072,1.0932-.1354s.7356-.0406,1.1039-.04.7377.0152,1.1057.04.7331.06,1.0983.1029q.1743.0207.3484.0436A62.5474,62.5474,0,0,1,26.29,29.3134c5.2525,2.2647,10.2929,4.9437,15.8119,6.5216a50.53,50.53,0,0,0,10.8512,1.8918,19.4527,19.4527,0,0,0,12.0579-2.8774c5.0429-3.4246,6.4427-11.7567,6.3-16.5643C71.3091,18.23,70.9756,19.4194,70.855,19.7661ZM6.3836,19.5842a1.6562,1.6562,0,0,1,.835-.5149,1.5,1.5,0,0,1,.9741.0835.6693.6693,0,0,1,.3237.2674.5522.5522,0,0,1-.0216.5189,1.0934,1.0934,0,0,1-.3808.3772A2.5716,2.5716,0,0,1,6.6661,20.7a3.4723,3.4723,0,0,1-.8874-.1422A6.8878,6.8878,0,0,1,6.3836,19.5842Z" transform="translate(-0.0555 -0.0276)"/><polygon class="cls-3" points="15.709 11.912 15.796 11.912 15.709 11.894 15.709 11.912"/><polygon class="cls-3" points="31.055 11.611 27.404 14.267 30.4 14.874 34.79 11.7 31.055 11.611"/><polygon class="cls-3" points="43.707 15.272 44.623 13.183 42.786 11.892 38.776 11.796 43.707 15.272"/><polygon class="cls-3" points="21.766 11.388 19.897 12.744 24.658 13.71 27.63 11.529 21.766 11.388"/><polygon class="cls-3" points="16.936 11.272 15.709 11.243 15.709 11.894 15.796 11.912 16.936 11.913 16.936 11.272"/><polygon class="cls-3" points="14.294 11.21 14.292 11.607 15.517 11.856 15.517 11.239 14.294 11.21"/><path class="cls-3" d="M55.9305,12.2328c-.9723,2.4108-2.0077,4.9957-2.907,7.2468l5.65,1.1461,1.8436-4.568h10.035l1.3538-3.442-.0023,0Z" transform="translate(-0.0555 -0.0276)"/><path class="cls-3" d="M47.1734,12.023l-2.4656,5.77,5.6505,1.1461c.9332-2.2485,1.96-4.6923,2.838-6.7717Z" transform="translate(-0.0555 -0.0276)"/><polygon class="cls-4" points="24.925 16.068 27.409 17.03 30.303 14.938 27.314 14.331 24.925 16.068"/><polygon class="cls-4" points="18.659 13.641 22.64 15.183 24.562 13.773 19.807 12.808 18.659 13.641"/><polygon class="cls-4" points="15.524 12.427 15.524 12.162 14.839 12.162 15.524 12.427"/><polygon class="cls-4" points="15.716 12.162 15.716 12.502 16.941 12.976 16.941 12.227 16.62 12.162 15.716 12.162"/><polygon class="cls-4" points="14.292 11.9 15.332 11.901 14.292 11.69 14.292 11.9"/><path class="cls-4" d="M52.9951,19.5566c-1.37,3.43-2.4148,6.0615-2.4148,6.0615h0c.0452-.1138,1.0738-2.7042,2.4149-6.0614Z" transform="translate(-0.0555 -0.0276)"/><path class="cls-4" d="M50.5807,25.6181h6.0806l1.9838-4.9155-5.6495-1.1459C51.6545,22.9139,50.6259,25.5043,50.5807,25.6181Z" transform="translate(-0.0555 -0.0276)"/><polygon class="cls-4" points="43.738 19.915 44.624 17.842 44.622 17.842 43.738 19.91 36.319 19.91 36.317 19.915 43.738 19.915"/><polygon class="cls-4" points="37.66 16.481 37.662 16.476 31.48 16.476 30.721 18.313 30.723 18.314 31.481 16.481 37.66 16.481"/><path class="cls-4" d="M43.7936,19.9421H36.3724l.0017-.0044H36.372l1.3433-3.43H31.5361l-.7576,1.8333,16.0959,6.0641,0,.0045a9.6334,9.6334,0,0,0,2.9186-4.1c.1734-.42.3527-.8537.5354-1.2939L44.6792,17.87Z" transform="translate(-0.0555 -0.0276)"/><polygon class="cls-5" points="27.403 14.266 27.314 14.331 30.303 14.938 30.393 14.873 27.403 14.266"/><polygon class="cls-5" points="19.896 12.744 19.807 12.808 24.562 13.773 24.651 13.708 19.896 12.744"/><polygon class="cls-5" points="16.62 12.162 16.941 12.227 16.941 12.162 16.62 12.162"/><polygon class="cls-5" points="15.517 11.856 14.292 11.607 14.292 11.69 15.332 11.901 15.517 11.901 15.517 11.856"/><path class="cls-5" d="M53.0261,19.48h0l-.0306.0765h.0005Z" transform="translate(-0.0555 -0.0276)"/><path class="cls-5" d="M58.6738,20.6257,53.0261,19.48l-.03.0765,5.6495,1.1459.03-.0734Z" transform="translate(-0.0555 -0.0276)"/><polygon class="cls-5" points="44.656 17.766 44.654 17.766 44.622 17.842 44.624 17.842 44.656 17.766"/><path class="cls-5" d="M44.7117,17.7937l-.0325.0761,5.6495,1.146.0316-.0764Z" transform="translate(-0.0555 -0.0276)"/><polygon class="cls-5" points="34.843 11.661 31.104 11.57 30.999 11.65 34.737 11.74 34.843 11.661"/><polygon class="cls-5" points="34.781 11.69 34.788 11.691 34.788 11.69 32.846 11.644 34.781 11.69"/><polygon class="cls-5" points="42.845 11.933 42.724 11.85 38.712 11.754 38.833 11.837 42.845 11.933"/><polygon class="cls-5" points="38.788 11.786 38.79 11.786 38.777 11.786 38.788 11.786"/><polyline class="cls-5" points="27.684 11.489 21.816 11.35 21.709 11.429 27.575 11.57"/><polygon class="cls-5" points="27.628 11.519 27.649 11.502 25.071 11.458 27.628 11.519"/><polygon class="cls-5" points="16.935 11.263 16.935 11.233 15.709 11.204 15.709 11.233 15.709 11.265 15.709 11.265 15.709 11.285 16.936 11.314 16.936 11.263 16.935 11.263"/><polygon class="cls-5" points="15.517 11.216 15.517 11.205 15.517 11.205 15.517 11.199 14.295 11.17 14.294 11.17 14.294 11.201 14.294 11.201 14.294 11.251 15.517 11.28 15.517 11.24 15.517 11.24 15.517 11.216"/><path class="cls-5" d="M71.9157,12.5761l0-.0006-.011-.0005-.025-.0006-.0347-.0017-1.8-.0421-14.1019-.3368c-.002.0052-.025.07-.0287.08l15.976.3838.03-.0808Z" transform="translate(-0.0555 -0.0276)"/><polygon class="cls-5" points="71.848 12.578 55.876 12.196 55.878 12.196 71.848 12.578"/><path class="cls-5" d="M53.2109,12.1274l-6.0241-.1441-.031.0795,6.0228.1454C53.1855,12.1918,53.2087,12.1327,53.2109,12.1274Z" transform="translate(-0.0555 -0.0276)"/><polygon class="cls-5" points="53.138 12.13 53.138 12.13 48.607 12.022 53.138 12.13"/></svg>