<svg xlink="http://www.w3.org/1999/xlink" viewBox="0 0 5000 5000" xmlns="http://www.w3.org/2000/svg" style="transform: scale(1);"><defs><filter id="goo"><feGaussianBlur in="SourceGraphic" stdDeviation="0" result="blur"></feGaussianBlur><feColorMatrix in="blur" type="matrix" values="1 0 0 0 0 0 1 0 0 0 0 0 1 0 0 0 0 0 19 -9" result="good"></feColorMatrix><feComposite in="SourceGraphic" in2="goo" operator="atop"></feComposite></filter><path d="M318,241C320,273 304,301 279,312C250,324 219,317 200,297C180,273 177,241 190,217C207,190 236,177 263,182C293,190 315,214 318,241z" id="P0"></path><path d="M216,229C227,214 245,208 260,211C277,217 289,232 290,247C290,266 279,281 265,287C247,293 229,288 219,275C209,261 208,242 216,229z" id="P1"></path><path d="M310,226C319,254 311,284 291,300C267,317 237,318 215,305C191,287 181,259 187,234C196,206 220,187 246,185C276,185 301,202 310,226z" id="P2"></path><path d="M287,226C297,244 295,265 284,278C270,293 250,297 234,291C216,282 205,265 206,247C209,227 222,212 239,207C259,204 278,212 287,226z" id="P3"></path></defs><rect id="RECT" width="5000" height="5000" fill="#111"></rect><g id="group" fill="#212020" filter=""><use x="284" y="-192" href="#P2"></use><use x="-21" y="604" href="#P1"></use><use x="-238" y="1337" href="#P1"></use><use x="-226" y="1816" href="#P3"></use><use x="233" y="2235" href="#P2"></use><use x="297" y="2894" href="#P1"></use><use x="-211" y="3313" href="#P3"></use><use x="114" y="4322" href="#P3"></use><use x="-142" y="4808" href="#P2"></use><use x="214" y="5178" href="#P0"></use><use x="614" y="-203" href="#P3"></use><use x="807" y="909" href="#P2"></use><use x="582" y="1141" href="#P0"></use><use x="741" y="1919" href="#P3"></use><use x="912" y="2170" href="#P3"></use><use x="945" y="3176" href="#P2"></use><use x="589" y="3669" href="#P1"></use><use x="901" y="4054" href="#P1"></use><use x="509" y="4931" href="#P3"></use><use x="525" y="5361" href="#P0"></use><use x="1295" y="286" href="#P0"></use><use x="1450" y="631" href="#P3"></use><use x="1176" y="1449" href="#P2"></use><use x="1078" y="1600" href="#P1"></use><use x="1342" y="2243" href="#P1"></use><use x="1460" y="2829" href="#P2"></use><use x="1285" y="3716" href="#P3"></use><use x="1557" y="4158" href="#P0"></use><use x="1016" y="4931" href="#P3"></use><use x="1150" y="5241" href="#P2"></use><use x="1750" y="-53" href="#P1"></use><use x="1990" y="519" href="#P1"></use><use x="1675" y="977" href="#P1"></use><use x="1804" y="1663" href="#P2"></use><use x="1943" y="2338" href="#P3"></use><use x="2134" y="2723" href="#P2"></use><use x="1626" y="3451" href="#P0"></use><use x="2130" y="4023" href="#P1"></use><use x="2113" y="4785" href="#P1"></use><use x="1820" y="5399" href="#P2"></use><use x="2259" y="51" href="#P3"></use><use x="2452" y="468" href="#P2"></use><use x="2452" y="1304" href="#P2"></use><use x="2671" y="1692" href="#P2"></use><use x="2671" y="2450" href="#P3"></use><use x="2255" y="3154" href="#P2"></use><use x="2409" y="3380" href="#P1"></use><use x="2803" y="4249" href="#P2"></use><use x="2786" y="4515" href="#P2"></use><use x="2468" y="5496" href="#P1"></use><use x="2834" y="317" href="#P3"></use><use x="3334" y="540" href="#P1"></use><use x="3229" y="1157" href="#P2"></use><use x="3002" y="1658" href="#P1"></use><use x="2922" y="2407" href="#P0"></use><use x="3037" y="2822" href="#P2"></use><use x="3188" y="3555" href="#P2"></use><use x="3120" y="3901" href="#P3"></use><use x="3282" y="4570" href="#P1"></use><use x="2966" y="5296" href="#P0"></use><use x="3599" y="77" href="#P0"></use><use x="3426" y="415" href="#P1"></use><use x="3836" y="1087" href="#P0"></use><use x="3977" y="1986" href="#P1"></use><use x="3483" y="2297" href="#P0"></use><use x="3827" y="2734" href="#P3"></use><use x="3937" y="3526" href="#P3"></use><use x="3847" y="4364" href="#P3"></use><use x="3460" y="4849" href="#P2"></use><use x="3984" y="5320" href="#P2"></use><use x="4507" y="-21" href="#P3"></use><use x="4341" y="389" href="#P1"></use><use x="4190" y="1074" href="#P3"></use><use x="4225" y="1871" href="#P2"></use><use x="4506" y="2675" href="#P2"></use><use x="4409" y="3033" href="#P3"></use><use x="4625" y="3324" href="#P0"></use><use x="4079" y="3932" href="#P0"></use><use x="4384" y="4615" href="#P0"></use><use x="4535" y="5394" href="#P2"></use><use x="4758" y="20" href="#P2"></use><use x="5067" y="847" href="#P2"></use><use x="4717" y="1467" href="#P0"></use><use x="5121" y="1781" href="#P2"></use><use x="4938" y="2521" href="#P2"></use><use x="4984" y="3121" href="#P0"></use><use x="5186" y="3642" href="#P3"></use><use x="5188" y="3983" href="#P1"></use><use x="4695" y="5073" href="#P2"></use><use x="5000" y="5597" href="#P2"></use></g></svg>